<?xml version="1.0" encoding="UTF-8" standalone="no"?>
<!DOCTYPE svg PUBLIC "-//W3C//DTD SVG 1.1//EN" "http://www.w3.org/Graphics/SVG/1.1/DTD/svg11.dtd">
<svg width="100%" height="100%" viewBox="0 0 18 23" version="1.1" xmlns="http://www.w3.org/2000/svg" xmlns:xlink="http://www.w3.org/1999/xlink" xml:space="preserve" xmlns:serif="http://www.serif.com/" style="fill-rule:evenodd;clip-rule:evenodd;">
    <path d="M14.66,1L2.812,1C2.345,0.999 1.895,1.179 1.558,1.502C1.22,1.825 1.02,2.266 1,2.733L1,20.26C0.994,20.537 1.074,20.809 1.229,21.039C1.311,21.157 1.421,21.254 1.548,21.32C1.676,21.386 1.818,21.421 1.961,21.42C2.274,21.405 2.571,21.28 2.8,21.066L8.1,16.566C8.284,16.423 8.511,16.346 8.744,16.346C8.977,16.346 9.203,16.423 9.387,16.566L14.67,21.066C14.892,21.279 15.183,21.406 15.49,21.421C15.955,21.421 16.408,21.062 16.408,20.261L16.408,2.733C16.403,2.272 16.217,1.832 15.89,1.508C15.563,1.183 15.121,1.001 14.66,1Z" style="fill:none;fill-rule:nonzero;stroke:black;stroke-width:1.8px;"/>
    <path d="M5.054,5.054L12.261,5.054" style="fill:none;fill-rule:nonzero;stroke:rgb(0,1,3);stroke-width:1.8px;stroke-linecap:round;"/>
</svg>
